%TF.GenerationSoftware,KiCad,Pcbnew,(6.0.7)*%
%TF.CreationDate,2023-02-16T16:04:02+01:00*%
%TF.ProjectId,hard tp,68617264-2074-4702-9e6b-696361645f70,rev?*%
%TF.SameCoordinates,Original*%
%TF.FileFunction,Copper,L2,Bot*%
%TF.FilePolarity,Positive*%
%FSLAX46Y46*%
G04 Gerber Fmt 4.6, Leading zero omitted, Abs format (unit mm)*
G04 Created by KiCad (PCBNEW (6.0.7)) date 2023-02-16 16:04:02*
%MOMM*%
%LPD*%
G01*
G04 APERTURE LIST*
G04 Aperture macros list*
%AMRoundRect*
0 Rectangle with rounded corners*
0 $1 Rounding radius*
0 $2 $3 $4 $5 $6 $7 $8 $9 X,Y pos of 4 corners*
0 Add a 4 corners polygon primitive as box body*
4,1,4,$2,$3,$4,$5,$6,$7,$8,$9,$2,$3,0*
0 Add four circle primitives for the rounded corners*
1,1,$1+$1,$2,$3*
1,1,$1+$1,$4,$5*
1,1,$1+$1,$6,$7*
1,1,$1+$1,$8,$9*
0 Add four rect primitives between the rounded corners*
20,1,$1+$1,$2,$3,$4,$5,0*
20,1,$1+$1,$4,$5,$6,$7,0*
20,1,$1+$1,$6,$7,$8,$9,0*
20,1,$1+$1,$8,$9,$2,$3,0*%
G04 Aperture macros list end*
%TA.AperFunction,ComponentPad*%
%ADD10C,6.400000*%
%TD*%
%TA.AperFunction,ComponentPad*%
%ADD11RoundRect,0.250000X-0.750000X0.600000X-0.750000X-0.600000X0.750000X-0.600000X0.750000X0.600000X0*%
%TD*%
%TA.AperFunction,ComponentPad*%
%ADD12O,2.000000X1.700000*%
%TD*%
%TA.AperFunction,ComponentPad*%
%ADD13RoundRect,0.250000X-0.600000X-0.750000X0.600000X-0.750000X0.600000X0.750000X-0.600000X0.750000X0*%
%TD*%
%TA.AperFunction,ComponentPad*%
%ADD14O,1.700000X2.000000*%
%TD*%
%TA.AperFunction,ComponentPad*%
%ADD15RoundRect,0.250000X0.750000X-0.600000X0.750000X0.600000X-0.750000X0.600000X-0.750000X-0.600000X0*%
%TD*%
%TA.AperFunction,ViaPad*%
%ADD16C,1.200000*%
%TD*%
%TA.AperFunction,Conductor*%
%ADD17C,0.300000*%
%TD*%
G04 APERTURE END LIST*
D10*
%TO.P,H4,1,1*%
%TO.N,GND*%
X138000000Y-62000000D03*
%TD*%
%TO.P,H3,1,1*%
%TO.N,GND*%
X188000000Y-102000000D03*
%TD*%
%TO.P,H2,1,1*%
%TO.N,GND*%
X188000000Y-62000000D03*
%TD*%
%TO.P,H1,1,1*%
%TO.N,GND*%
X138000000Y-102000000D03*
%TD*%
D11*
%TO.P,J4,1,Pin_1*%
%TO.N,DAC_OUT*%
X189000000Y-81000000D03*
D12*
%TO.P,J4,2,Pin_2*%
%TO.N,GND*%
X189000000Y-83500000D03*
%TD*%
D13*
%TO.P,J3,1,Pin_1*%
%TO.N,+5V*%
X162000000Y-61000000D03*
D14*
%TO.P,J3,2,Pin_2*%
%TO.N,GND*%
X164500000Y-61000000D03*
%TD*%
D15*
%TO.P,J2,1,Pin_1*%
%TO.N,ADC_IN1*%
X138000000Y-84000000D03*
D12*
%TO.P,J2,2,Pin_2*%
%TO.N,GND*%
X138000000Y-81500000D03*
%TD*%
D16*
%TO.N,GND*%
X152000000Y-83000000D03*
X162000000Y-72349500D03*
%TO.N,USART2_RX*%
X161000000Y-69000000D03*
X160500500Y-84750500D03*
%TO.N,USART2_TX*%
X162000000Y-85000000D03*
%TO.N,NRST*%
X166000000Y-76000000D03*
%TO.N,USART2_TX*%
X164000000Y-76000000D03*
%TO.N,NRST*%
X161000000Y-83000000D03*
%TO.N,ADC_IN1*%
X157000000Y-85000000D03*
X145000000Y-84000000D03*
%TO.N,LED_STATUS*%
X165000000Y-84000000D03*
X153000000Y-91000000D03*
%TD*%
D17*
%TO.N,NRST*%
X161000000Y-83000000D02*
X161000000Y-77486791D01*
X161000000Y-77486791D02*
X163556791Y-74930000D01*
X163556791Y-74930000D02*
X164930000Y-74930000D01*
X164930000Y-74930000D02*
X166000000Y-76000000D01*
%TO.N,USART2_RX*%
X159930000Y-84180000D02*
X159930000Y-70070000D01*
X160500500Y-84750500D02*
X159930000Y-84180000D01*
X159930000Y-70070000D02*
X161000000Y-69000000D01*
%TO.N,LED_STATUS*%
X165000000Y-84000000D02*
X165000000Y-85000000D01*
X165000000Y-85000000D02*
X159000000Y-91000000D01*
X159000000Y-91000000D02*
X153000000Y-91000000D01*
%TO.N,USART2_TX*%
X164000000Y-76000000D02*
X164000000Y-83000000D01*
X164000000Y-83000000D02*
X162000000Y-85000000D01*
%TO.N,ADC_IN1*%
X157000000Y-85000000D02*
X146000000Y-85000000D01*
X146000000Y-85000000D02*
X145000000Y-84000000D01*
%TD*%
%TA.AperFunction,Conductor*%
%TO.N,GND*%
G36*
X186228176Y-58528502D02*
G01*
X186274669Y-58582158D01*
X186284773Y-58652432D01*
X186255279Y-58717012D01*
X186217258Y-58746767D01*
X186146397Y-58782872D01*
X186140687Y-58786169D01*
X185820265Y-58994253D01*
X185814939Y-58998123D01*
X185576165Y-59191478D01*
X185567700Y-59203733D01*
X185574034Y-59214824D01*
X190784310Y-64425100D01*
X190797386Y-64432241D01*
X190807753Y-64424784D01*
X191001877Y-64185061D01*
X191005747Y-64179735D01*
X191213831Y-63859313D01*
X191217128Y-63853603D01*
X191253233Y-63782742D01*
X191301981Y-63731127D01*
X191370896Y-63714061D01*
X191438098Y-63736962D01*
X191482250Y-63792559D01*
X191491500Y-63839945D01*
X191491500Y-100160055D01*
X191471498Y-100228176D01*
X191417842Y-100274669D01*
X191347568Y-100284773D01*
X191282988Y-100255279D01*
X191253233Y-100217258D01*
X191217128Y-100146397D01*
X191213831Y-100140687D01*
X191005747Y-99820265D01*
X191001877Y-99814939D01*
X190808522Y-99576165D01*
X190796267Y-99567700D01*
X190785176Y-99574034D01*
X185574900Y-104784310D01*
X185567759Y-104797386D01*
X185575216Y-104807753D01*
X185814935Y-105001874D01*
X185820272Y-105005751D01*
X186140685Y-105213830D01*
X186146394Y-105217126D01*
X186217257Y-105253233D01*
X186268872Y-105301981D01*
X186285938Y-105370896D01*
X186263037Y-105438098D01*
X186207440Y-105482250D01*
X186160054Y-105491500D01*
X139839946Y-105491500D01*
X139771825Y-105471498D01*
X139725332Y-105417842D01*
X139715228Y-105347568D01*
X139744722Y-105282988D01*
X139782743Y-105253233D01*
X139853606Y-105217126D01*
X139859315Y-105213830D01*
X140179728Y-105005751D01*
X140185065Y-105001874D01*
X140423835Y-104808522D01*
X140432300Y-104796267D01*
X140425966Y-104785176D01*
X137641922Y-102001132D01*
X138364408Y-102001132D01*
X138364539Y-102002965D01*
X138368790Y-102009580D01*
X140784310Y-104425100D01*
X140797386Y-104432241D01*
X140807753Y-104424784D01*
X141001877Y-104185061D01*
X141005747Y-104179735D01*
X141213831Y-103859313D01*
X141217128Y-103853603D01*
X141390578Y-103513189D01*
X141393260Y-103507164D01*
X141530171Y-103150498D01*
X141532212Y-103144216D01*
X141631094Y-102775184D01*
X141632465Y-102768734D01*
X141692234Y-102391371D01*
X141692920Y-102384833D01*
X141712916Y-102003301D01*
X184287084Y-102003301D01*
X184307080Y-102384833D01*
X184307766Y-102391371D01*
X184367535Y-102768734D01*
X184368906Y-102775184D01*
X184467788Y-103144216D01*
X184469829Y-103150498D01*
X184606740Y-103507164D01*
X184609422Y-103513189D01*
X184782872Y-103853603D01*
X184786169Y-103859313D01*
X184994253Y-104179735D01*
X184998123Y-104185061D01*
X185191478Y-104423835D01*
X185203733Y-104432300D01*
X185214824Y-104425966D01*
X187627978Y-102012812D01*
X187635592Y-101998868D01*
X187635461Y-101997035D01*
X187631210Y-101990420D01*
X185215690Y-99574900D01*
X185202614Y-99567759D01*
X185192247Y-99575216D01*
X184998123Y-99814939D01*
X184994253Y-99820265D01*
X184786169Y-100140687D01*
X184782872Y-100146397D01*
X184609422Y-100486811D01*
X184606740Y-100492836D01*
X184469829Y-100849502D01*
X184467788Y-100855784D01*
X184368906Y-101224816D01*
X184367535Y-101231266D01*
X184307766Y-101608629D01*
X184307080Y-101615167D01*
X184287084Y-101996699D01*
X184287084Y-102003301D01*
X141712916Y-102003301D01*
X141712916Y-101996699D01*
X141692920Y-101615167D01*
X141692234Y-101608629D01*
X141632465Y-101231266D01*
X141631094Y-101224816D01*
X141532212Y-100855784D01*
X141530171Y-100849502D01*
X141393260Y-100492836D01*
X141390578Y-100486811D01*
X141217128Y-100146397D01*
X141213831Y-100140687D01*
X141005747Y-99820265D01*
X141001877Y-99814939D01*
X140808522Y-99576165D01*
X140796267Y-99567700D01*
X140785176Y-99574034D01*
X138372022Y-101987188D01*
X138364408Y-102001132D01*
X137641922Y-102001132D01*
X135215690Y-99574900D01*
X135202614Y-99567759D01*
X135192247Y-99575216D01*
X134998123Y-99814939D01*
X134994253Y-99820265D01*
X134786169Y-100140687D01*
X134782872Y-100146397D01*
X134746767Y-100217258D01*
X134698019Y-100268873D01*
X134629104Y-100285939D01*
X134561902Y-100263038D01*
X134517750Y-100207441D01*
X134508500Y-100160055D01*
X134508500Y-99203733D01*
X135567700Y-99203733D01*
X135574034Y-99214824D01*
X137987188Y-101627978D01*
X138001132Y-101635592D01*
X138002965Y-101635461D01*
X138009580Y-101631210D01*
X140425100Y-99215690D01*
X140431630Y-99203733D01*
X185567700Y-99203733D01*
X185574034Y-99214824D01*
X187987188Y-101627978D01*
X188001132Y-101635592D01*
X188002965Y-101635461D01*
X188009580Y-101631210D01*
X190425100Y-99215690D01*
X190432241Y-99202614D01*
X190424784Y-99192247D01*
X190185065Y-98998126D01*
X190179728Y-98994249D01*
X189859315Y-98786170D01*
X189853606Y-98782873D01*
X189513189Y-98609422D01*
X189507164Y-98606740D01*
X189150498Y-98469829D01*
X189144216Y-98467788D01*
X188775184Y-98368906D01*
X188768734Y-98367535D01*
X188391371Y-98307766D01*
X188384833Y-98307080D01*
X188003301Y-98287084D01*
X187996699Y-98287084D01*
X187615167Y-98307080D01*
X187608629Y-98307766D01*
X187231266Y-98367535D01*
X187224816Y-98368906D01*
X186855784Y-98467788D01*
X186849502Y-98469829D01*
X186492836Y-98606740D01*
X186486811Y-98609422D01*
X186146397Y-98782872D01*
X186140687Y-98786169D01*
X185820265Y-98994253D01*
X185814939Y-98998123D01*
X185576165Y-99191478D01*
X185567700Y-99203733D01*
X140431630Y-99203733D01*
X140432241Y-99202614D01*
X140424784Y-99192247D01*
X140185065Y-98998126D01*
X140179728Y-98994249D01*
X139859315Y-98786170D01*
X139853606Y-98782873D01*
X139513189Y-98609422D01*
X139507164Y-98606740D01*
X139150498Y-98469829D01*
X139144216Y-98467788D01*
X138775184Y-98368906D01*
X138768734Y-98367535D01*
X138391371Y-98307766D01*
X138384833Y-98307080D01*
X138003301Y-98287084D01*
X137996699Y-98287084D01*
X137615167Y-98307080D01*
X137608629Y-98307766D01*
X137231266Y-98367535D01*
X137224816Y-98368906D01*
X136855784Y-98467788D01*
X136849502Y-98469829D01*
X136492836Y-98606740D01*
X136486811Y-98609422D01*
X136146397Y-98782872D01*
X136140687Y-98786169D01*
X135820265Y-98994253D01*
X135814939Y-98998123D01*
X135576165Y-99191478D01*
X135567700Y-99203733D01*
X134508500Y-99203733D01*
X134508500Y-90970859D01*
X151887132Y-90970859D01*
X151900457Y-91174151D01*
X151950605Y-91371610D01*
X152035898Y-91556624D01*
X152153479Y-91722997D01*
X152299410Y-91865157D01*
X152304206Y-91868362D01*
X152304209Y-91868364D01*
X152372149Y-91913760D01*
X152468803Y-91978342D01*
X152474106Y-91980620D01*
X152474109Y-91980622D01*
X152563115Y-92018862D01*
X152655987Y-92058763D01*
X152728817Y-92075243D01*
X152849055Y-92102450D01*
X152849060Y-92102451D01*
X152854692Y-92103725D01*
X152860463Y-92103952D01*
X152860465Y-92103952D01*
X152923470Y-92106427D01*
X153058263Y-92111723D01*
X153259883Y-92082490D01*
X153265347Y-92080635D01*
X153265352Y-92080634D01*
X153447327Y-92018862D01*
X153447332Y-92018860D01*
X153452799Y-92017004D01*
X153630551Y-91917458D01*
X153787186Y-91787186D01*
X153856429Y-91703930D01*
X153915365Y-91664347D01*
X153953302Y-91658500D01*
X158917944Y-91658500D01*
X158929800Y-91659059D01*
X158929803Y-91659059D01*
X158937537Y-91660788D01*
X159008369Y-91658562D01*
X159012327Y-91658500D01*
X159041432Y-91658500D01*
X159045832Y-91657944D01*
X159057664Y-91657012D01*
X159103831Y-91655562D01*
X159124421Y-91649580D01*
X159143782Y-91645570D01*
X159150770Y-91644688D01*
X159157204Y-91643875D01*
X159157205Y-91643875D01*
X159165064Y-91642882D01*
X159172429Y-91639966D01*
X159172433Y-91639965D01*
X159208021Y-91625874D01*
X159219231Y-91622035D01*
X159263600Y-91609145D01*
X159282065Y-91598225D01*
X159299805Y-91589534D01*
X159319756Y-91581635D01*
X159357129Y-91554482D01*
X159367048Y-91547967D01*
X159399977Y-91528493D01*
X159399981Y-91528490D01*
X159406807Y-91524453D01*
X159421971Y-91509289D01*
X159437005Y-91496448D01*
X159447943Y-91488501D01*
X159454357Y-91483841D01*
X159483803Y-91448247D01*
X159491792Y-91439468D01*
X165407600Y-85523659D01*
X165416381Y-85515669D01*
X165416390Y-85515661D01*
X165423080Y-85511416D01*
X165471621Y-85459725D01*
X165474375Y-85456884D01*
X165494926Y-85436333D01*
X165497638Y-85432837D01*
X165505349Y-85423808D01*
X165531544Y-85395913D01*
X165536972Y-85390133D01*
X165547301Y-85371345D01*
X165558158Y-85354816D01*
X165566447Y-85344131D01*
X165566448Y-85344129D01*
X165571304Y-85337869D01*
X165589657Y-85295456D01*
X165594868Y-85284819D01*
X165617124Y-85244337D01*
X165622457Y-85223566D01*
X165628859Y-85204864D01*
X165637379Y-85185177D01*
X165644605Y-85139552D01*
X165647013Y-85127926D01*
X165656529Y-85090865D01*
X165656529Y-85090864D01*
X165658500Y-85083188D01*
X165658500Y-85061742D01*
X165660051Y-85042031D01*
X165662166Y-85028678D01*
X165663406Y-85020849D01*
X165659059Y-84974864D01*
X165658500Y-84963006D01*
X165658500Y-84953302D01*
X165678502Y-84885181D01*
X165703930Y-84856430D01*
X165787186Y-84787186D01*
X165917458Y-84630551D01*
X166017004Y-84452799D01*
X166018860Y-84447332D01*
X166018862Y-84447327D01*
X166080634Y-84265352D01*
X166080635Y-84265347D01*
X166082490Y-84259883D01*
X166111723Y-84058263D01*
X166113249Y-84000000D01*
X166094608Y-83797126D01*
X166087554Y-83772115D01*
X166086557Y-83768580D01*
X187518752Y-83768580D01*
X187543477Y-83886421D01*
X187546537Y-83896617D01*
X187627263Y-84101029D01*
X187631994Y-84110561D01*
X187746016Y-84298462D01*
X187752280Y-84307052D01*
X187896327Y-84473052D01*
X187903958Y-84480472D01*
X188073911Y-84619826D01*
X188082678Y-84625850D01*
X188273682Y-84734576D01*
X188283346Y-84739041D01*
X188489941Y-84814031D01*
X188500208Y-84816802D01*
X188717655Y-84856123D01*
X188725884Y-84857056D01*
X188730376Y-84857268D01*
X188743124Y-84853525D01*
X188744329Y-84852135D01*
X188746000Y-84844452D01*
X188746000Y-84835970D01*
X189254000Y-84835970D01*
X189258310Y-84850648D01*
X189270193Y-84852711D01*
X189374325Y-84843876D01*
X189384797Y-84842086D01*
X189597535Y-84786870D01*
X189607575Y-84783335D01*
X189807970Y-84693063D01*
X189817256Y-84687894D01*
X189999575Y-84565150D01*
X190007870Y-84558481D01*
X190166900Y-84406772D01*
X190173941Y-84398814D01*
X190305141Y-84222475D01*
X190310745Y-84213438D01*
X190410357Y-84017516D01*
X190414357Y-84007665D01*
X190479534Y-83797760D01*
X190481817Y-83787376D01*
X190483861Y-83771957D01*
X190481665Y-83757793D01*
X190468478Y-83754000D01*
X189272115Y-83754000D01*
X189256876Y-83758475D01*
X189255671Y-83759865D01*
X189254000Y-83767548D01*
X189254000Y-84835970D01*
X188746000Y-84835970D01*
X188746000Y-83772115D01*
X188741525Y-83756876D01*
X188740135Y-83755671D01*
X188732452Y-83754000D01*
X187533808Y-83754000D01*
X187520277Y-83757973D01*
X187518752Y-83768580D01*
X166086557Y-83768580D01*
X166040875Y-83606606D01*
X166040874Y-83606604D01*
X166039307Y-83601047D01*
X166028680Y-83579496D01*
X165951756Y-83423510D01*
X165949201Y-83418329D01*
X165930796Y-83393681D01*
X165830758Y-83259715D01*
X165830758Y-83259714D01*
X165827305Y-83255091D01*
X165677703Y-83116800D01*
X165584927Y-83058263D01*
X165510288Y-83011169D01*
X165510283Y-83011167D01*
X165505404Y-83008088D01*
X165316180Y-82932595D01*
X165116366Y-82892849D01*
X165110592Y-82892773D01*
X165110588Y-82892773D01*
X165007452Y-82891424D01*
X164912655Y-82890183D01*
X164906960Y-82891162D01*
X164906955Y-82891162D01*
X164805837Y-82908537D01*
X164735313Y-82900360D01*
X164680406Y-82855353D01*
X164658500Y-82784357D01*
X164658500Y-81650400D01*
X187491500Y-81650400D01*
X187502474Y-81756166D01*
X187504655Y-81762702D01*
X187504655Y-81762704D01*
X187516351Y-81797760D01*
X187558450Y-81923946D01*
X187651522Y-82074348D01*
X187776697Y-82199305D01*
X187782927Y-82203145D01*
X187782928Y-82203146D01*
X187833934Y-82234587D01*
X187922258Y-82289030D01*
X187922780Y-82289352D01*
X187970273Y-82342124D01*
X187981697Y-82412196D01*
X187953423Y-82477320D01*
X187943636Y-82487782D01*
X187833094Y-82593234D01*
X187826059Y-82601186D01*
X187694859Y-82777525D01*
X187689255Y-82786562D01*
X187589643Y-82982484D01*
X187585643Y-82992335D01*
X187520466Y-83202240D01*
X187518183Y-83212624D01*
X187516139Y-83228043D01*
X187518335Y-83242207D01*
X187531522Y-83246000D01*
X190466192Y-83246000D01*
X190479723Y-83242027D01*
X190481248Y-83231420D01*
X190456523Y-83113579D01*
X190453463Y-83103383D01*
X190372737Y-82898971D01*
X190368006Y-82889439D01*
X190253984Y-82701538D01*
X190247720Y-82692948D01*
X190103673Y-82526948D01*
X190096044Y-82519530D01*
X190064431Y-82493609D01*
X190024436Y-82434949D01*
X190022504Y-82363979D01*
X190059248Y-82303230D01*
X190078018Y-82289030D01*
X190125391Y-82259715D01*
X190224348Y-82198478D01*
X190349305Y-82073303D01*
X190442115Y-81922738D01*
X190497797Y-81754861D01*
X190508500Y-81650400D01*
X190508500Y-80349600D01*
X190504610Y-80312106D01*
X190498238Y-80250692D01*
X190498237Y-80250688D01*
X190497526Y-80243834D01*
X190487283Y-80213130D01*
X190443868Y-80083002D01*
X190441550Y-80076054D01*
X190348478Y-79925652D01*
X190223303Y-79800695D01*
X190217072Y-79796854D01*
X190078968Y-79711725D01*
X190078966Y-79711724D01*
X190072738Y-79707885D01*
X189912254Y-79654655D01*
X189911389Y-79654368D01*
X189911387Y-79654368D01*
X189904861Y-79652203D01*
X189898025Y-79651503D01*
X189898022Y-79651502D01*
X189854969Y-79647091D01*
X189800400Y-79641500D01*
X188199600Y-79641500D01*
X188196354Y-79641837D01*
X188196350Y-79641837D01*
X188100692Y-79651762D01*
X188100688Y-79651763D01*
X188093834Y-79652474D01*
X188087298Y-79654655D01*
X188087296Y-79654655D01*
X187955194Y-79698728D01*
X187926054Y-79708450D01*
X187775652Y-79801522D01*
X187650695Y-79926697D01*
X187557885Y-80077262D01*
X187555581Y-80084209D01*
X187529106Y-80164030D01*
X187502203Y-80245139D01*
X187501503Y-80251975D01*
X187501502Y-80251978D01*
X187497091Y-80295031D01*
X187491500Y-80349600D01*
X187491500Y-81650400D01*
X164658500Y-81650400D01*
X164658500Y-76953302D01*
X164678502Y-76885181D01*
X164703930Y-76856430D01*
X164787186Y-76787186D01*
X164904733Y-76645851D01*
X164963670Y-76606267D01*
X165034652Y-76604831D01*
X165095143Y-76641998D01*
X165104503Y-76653699D01*
X165150145Y-76718280D01*
X165153479Y-76722997D01*
X165299410Y-76865157D01*
X165304206Y-76868362D01*
X165304209Y-76868364D01*
X165381913Y-76920284D01*
X165468803Y-76978342D01*
X165474106Y-76980620D01*
X165474109Y-76980622D01*
X165563115Y-77018862D01*
X165655987Y-77058763D01*
X165728817Y-77075243D01*
X165849055Y-77102450D01*
X165849060Y-77102451D01*
X165854692Y-77103725D01*
X165860463Y-77103952D01*
X165860465Y-77103952D01*
X165923470Y-77106427D01*
X166058263Y-77111723D01*
X166259883Y-77082490D01*
X166265347Y-77080635D01*
X166265352Y-77080634D01*
X166447327Y-77018862D01*
X166447332Y-77018860D01*
X166452799Y-77017004D01*
X166630551Y-76917458D01*
X166787186Y-76787186D01*
X166917458Y-76630551D01*
X167017004Y-76452799D01*
X167018860Y-76447332D01*
X167018862Y-76447327D01*
X167080634Y-76265352D01*
X167080635Y-76265347D01*
X167082490Y-76259883D01*
X167111723Y-76058263D01*
X167113249Y-76000000D01*
X167094608Y-75797126D01*
X167039307Y-75601047D01*
X166949201Y-75418329D01*
X166827305Y-75255091D01*
X166677703Y-75116800D01*
X166631675Y-75087759D01*
X166510288Y-75011169D01*
X166510283Y-75011167D01*
X166505404Y-75008088D01*
X166316180Y-74932595D01*
X166116366Y-74892849D01*
X166110592Y-74892773D01*
X166110588Y-74892773D01*
X166007452Y-74891424D01*
X165912655Y-74890183D01*
X165906962Y-74891161D01*
X165906952Y-74891162D01*
X165899115Y-74892509D01*
X165828591Y-74884331D01*
X165788684Y-74857424D01*
X165453655Y-74522395D01*
X165445665Y-74513615D01*
X165445663Y-74513613D01*
X165441416Y-74506920D01*
X165423965Y-74490532D01*
X165389743Y-74458396D01*
X165386901Y-74455641D01*
X165366333Y-74435073D01*
X165362826Y-74432353D01*
X165353804Y-74424647D01*
X165349613Y-74420711D01*
X165320133Y-74393028D01*
X165313181Y-74389206D01*
X165301342Y-74382697D01*
X165284818Y-74371843D01*
X165274132Y-74363555D01*
X165267868Y-74358696D01*
X165260596Y-74355549D01*
X165260594Y-74355548D01*
X165225465Y-74340346D01*
X165214805Y-74335124D01*
X165181284Y-74316695D01*
X165181282Y-74316694D01*
X165174337Y-74312876D01*
X165153559Y-74307541D01*
X165134869Y-74301142D01*
X165115176Y-74292620D01*
X165069552Y-74285394D01*
X165057929Y-74282987D01*
X165023657Y-74274188D01*
X165013188Y-74271500D01*
X164991741Y-74271500D01*
X164972031Y-74269949D01*
X164950848Y-74266594D01*
X164904859Y-74270941D01*
X164893004Y-74271500D01*
X163638851Y-74271500D01*
X163626994Y-74270941D01*
X163619254Y-74269211D01*
X163611329Y-74269460D01*
X163611328Y-74269460D01*
X163548390Y-74271438D01*
X163544432Y-74271500D01*
X163515359Y-74271500D01*
X163511425Y-74271997D01*
X163511423Y-74271997D01*
X163510980Y-74272053D01*
X163499145Y-74272985D01*
X163466355Y-74274016D01*
X163460880Y-74274188D01*
X163460879Y-74274188D01*
X163452960Y-74274437D01*
X163433235Y-74280168D01*
X163432362Y-74280421D01*
X163413009Y-74284429D01*
X163409534Y-74284868D01*
X163391727Y-74287118D01*
X163384359Y-74290035D01*
X163384356Y-74290036D01*
X163348773Y-74304125D01*
X163337538Y-74307971D01*
X163300807Y-74318642D01*
X163300804Y-74318643D01*
X163293191Y-74320855D01*
X163274726Y-74331775D01*
X163256986Y-74340466D01*
X163237035Y-74348365D01*
X163199665Y-74375516D01*
X163189743Y-74382033D01*
X163156814Y-74401507D01*
X163156810Y-74401510D01*
X163149984Y-74405547D01*
X163134820Y-74420711D01*
X163119787Y-74433551D01*
X163102434Y-74446159D01*
X163092311Y-74458396D01*
X163072989Y-74481752D01*
X163064999Y-74490532D01*
X160803595Y-76751936D01*
X160741283Y-76785962D01*
X160670468Y-76780897D01*
X160613632Y-76738350D01*
X160588821Y-76671830D01*
X160588500Y-76662841D01*
X160588500Y-70394950D01*
X160608502Y-70326829D01*
X160625405Y-70305855D01*
X160789590Y-70141670D01*
X160851902Y-70107644D01*
X160883632Y-70104862D01*
X161058263Y-70111723D01*
X161259883Y-70082490D01*
X161265347Y-70080635D01*
X161265352Y-70080634D01*
X161447327Y-70018862D01*
X161447332Y-70018860D01*
X161452799Y-70017004D01*
X161468415Y-70008259D01*
X161586601Y-69942071D01*
X161630551Y-69917458D01*
X161787186Y-69787186D01*
X161917458Y-69630551D01*
X162017004Y-69452799D01*
X162018860Y-69447332D01*
X162018862Y-69447327D01*
X162080634Y-69265352D01*
X162080635Y-69265347D01*
X162082490Y-69259883D01*
X162111723Y-69058263D01*
X162113249Y-69000000D01*
X162094608Y-68797126D01*
X162039307Y-68601047D01*
X162028680Y-68579496D01*
X161951756Y-68423510D01*
X161949201Y-68418329D01*
X161930796Y-68393681D01*
X161830758Y-68259715D01*
X161830758Y-68259714D01*
X161827305Y-68255091D01*
X161677703Y-68116800D01*
X161631675Y-68087759D01*
X161510288Y-68011169D01*
X161510283Y-68011167D01*
X161505404Y-68008088D01*
X161316180Y-67932595D01*
X161116366Y-67892849D01*
X161110592Y-67892773D01*
X161110588Y-67892773D01*
X161007452Y-67891424D01*
X160912655Y-67890183D01*
X160906958Y-67891162D01*
X160906957Y-67891162D01*
X160717567Y-67923705D01*
X160711870Y-67924684D01*
X160520734Y-67995198D01*
X160345649Y-68099363D01*
X160192478Y-68233690D01*
X160188911Y-68238215D01*
X160188906Y-68238220D01*
X160102331Y-68348040D01*
X160066351Y-68393681D01*
X159971492Y-68573978D01*
X159911078Y-68768543D01*
X159887132Y-68970859D01*
X159887510Y-68976625D01*
X159896362Y-69111677D01*
X159880858Y-69180960D01*
X159859727Y-69209013D01*
X159522395Y-69546345D01*
X159513615Y-69554335D01*
X159513613Y-69554337D01*
X159506920Y-69558584D01*
X159501494Y-69564362D01*
X159501493Y-69564363D01*
X159458396Y-69610257D01*
X159455641Y-69613099D01*
X159435073Y-69633667D01*
X159432356Y-69637170D01*
X159424648Y-69646195D01*
X159393028Y-69679867D01*
X159389207Y-69686818D01*
X159389206Y-69686819D01*
X159382697Y-69698658D01*
X159371843Y-69715182D01*
X159364018Y-69725271D01*
X159358696Y-69732132D01*
X159355549Y-69739404D01*
X159355548Y-69739406D01*
X159340346Y-69774535D01*
X159335124Y-69785195D01*
X159312876Y-69825663D01*
X159307541Y-69846441D01*
X159301142Y-69865131D01*
X159292620Y-69884824D01*
X159291380Y-69892655D01*
X159285394Y-69930448D01*
X159282987Y-69942071D01*
X159271500Y-69986812D01*
X159271500Y-70008259D01*
X159269949Y-70027969D01*
X159266594Y-70049152D01*
X159267340Y-70057043D01*
X159270941Y-70095138D01*
X159271500Y-70106996D01*
X159271500Y-84097944D01*
X159270941Y-84109800D01*
X159269212Y-84117537D01*
X159269461Y-84125459D01*
X159271438Y-84188369D01*
X159271500Y-84192327D01*
X159271500Y-84221432D01*
X159272056Y-84225832D01*
X159272988Y-84237664D01*
X159274438Y-84283831D01*
X159276650Y-84291444D01*
X159276650Y-84291445D01*
X159280419Y-84304416D01*
X159284430Y-84323782D01*
X159287118Y-84345064D01*
X159290034Y-84352429D01*
X159290035Y-84352433D01*
X159304126Y-84388021D01*
X159307965Y-84399231D01*
X159320855Y-84443600D01*
X159331775Y-84462065D01*
X159340466Y-84479805D01*
X159348365Y-84499756D01*
X159375514Y-84537123D01*
X159382126Y-84547205D01*
X159382304Y-84547507D01*
X159399662Y-84616349D01*
X159398883Y-84626295D01*
X159391593Y-84687894D01*
X159387632Y-84721359D01*
X159400957Y-84924651D01*
X159451105Y-85122110D01*
X159536398Y-85307124D01*
X159653979Y-85473497D01*
X159799910Y-85615657D01*
X159804706Y-85618862D01*
X159804709Y-85618864D01*
X159870255Y-85662660D01*
X159969303Y-85728842D01*
X159974606Y-85731120D01*
X159974609Y-85731122D01*
X160151180Y-85806983D01*
X160156487Y-85809263D01*
X160229317Y-85825743D01*
X160349555Y-85852950D01*
X160349560Y-85852951D01*
X160355192Y-85854225D01*
X160360963Y-85854452D01*
X160360965Y-85854452D01*
X160423970Y-85856927D01*
X160558763Y-85862223D01*
X160760383Y-85832990D01*
X160765847Y-85831135D01*
X160765852Y-85831134D01*
X160947827Y-85769362D01*
X160947832Y-85769360D01*
X160953299Y-85767504D01*
X161027326Y-85726047D01*
X161096534Y-85710214D01*
X161163316Y-85734311D01*
X161176813Y-85745728D01*
X161299410Y-85865157D01*
X161304206Y-85868362D01*
X161304209Y-85868364D01*
X161372149Y-85913760D01*
X161468803Y-85978342D01*
X161474106Y-85980620D01*
X161474109Y-85980622D01*
X161563115Y-86018862D01*
X161655987Y-86058763D01*
X161728817Y-86075243D01*
X161849055Y-86102450D01*
X161849060Y-86102451D01*
X161854692Y-86103725D01*
X161860463Y-86103952D01*
X161860465Y-86103952D01*
X161923470Y-86106427D01*
X162058263Y-86111723D01*
X162259883Y-86082490D01*
X162265347Y-86080635D01*
X162265352Y-86080634D01*
X162447327Y-86018862D01*
X162447332Y-86018860D01*
X162452799Y-86017004D01*
X162630551Y-85917458D01*
X162787186Y-85787186D01*
X162917458Y-85630551D01*
X163013125Y-85459726D01*
X163014180Y-85457842D01*
X163014181Y-85457840D01*
X163017004Y-85452799D01*
X163018860Y-85447332D01*
X163018862Y-85447327D01*
X163080634Y-85265352D01*
X163080635Y-85265347D01*
X163082490Y-85259883D01*
X163111723Y-85058263D01*
X163113249Y-85000000D01*
X163106722Y-84928968D01*
X163103341Y-84892167D01*
X163117026Y-84822502D01*
X163139717Y-84791543D01*
X163714748Y-84216512D01*
X163777060Y-84182486D01*
X163847875Y-84187551D01*
X163904711Y-84230098D01*
X163925965Y-84274590D01*
X163950605Y-84371610D01*
X164035898Y-84556624D01*
X164153479Y-84722997D01*
X164157611Y-84727023D01*
X164157616Y-84727028D01*
X164159432Y-84728797D01*
X164160022Y-84729845D01*
X164161369Y-84731422D01*
X164161059Y-84731687D01*
X164194266Y-84790661D01*
X164190124Y-84861537D01*
X164160600Y-84908141D01*
X158764145Y-90304595D01*
X158701833Y-90338621D01*
X158675050Y-90341500D01*
X153954995Y-90341500D01*
X153886874Y-90321498D01*
X153854038Y-90290890D01*
X153830759Y-90259717D01*
X153827305Y-90255091D01*
X153677703Y-90116800D01*
X153631675Y-90087759D01*
X153510288Y-90011169D01*
X153510283Y-90011167D01*
X153505404Y-90008088D01*
X153316180Y-89932595D01*
X153116366Y-89892849D01*
X153110592Y-89892773D01*
X153110588Y-89892773D01*
X153007452Y-89891424D01*
X152912655Y-89890183D01*
X152906958Y-89891162D01*
X152906957Y-89891162D01*
X152717567Y-89923705D01*
X152711870Y-89924684D01*
X152520734Y-89995198D01*
X152345649Y-90099363D01*
X152192478Y-90233690D01*
X152188911Y-90238215D01*
X152188906Y-90238220D01*
X152109757Y-90338621D01*
X152066351Y-90393681D01*
X151971492Y-90573978D01*
X151911078Y-90768543D01*
X151887132Y-90970859D01*
X134508500Y-90970859D01*
X134508500Y-84650400D01*
X136491500Y-84650400D01*
X136491837Y-84653646D01*
X136491837Y-84653650D01*
X136500234Y-84734576D01*
X136502474Y-84756166D01*
X136504655Y-84762702D01*
X136504655Y-84762704D01*
X136528217Y-84833326D01*
X136558450Y-84923946D01*
X136651522Y-85074348D01*
X136656704Y-85079521D01*
X136693758Y-85116510D01*
X136776697Y-85199305D01*
X136782927Y-85203145D01*
X136782928Y-85203146D01*
X136920090Y-85287694D01*
X136927262Y-85292115D01*
X137007005Y-85318564D01*
X137088611Y-85345632D01*
X137088613Y-85345632D01*
X137095139Y-85347797D01*
X137101975Y-85348497D01*
X137101978Y-85348498D01*
X137145031Y-85352909D01*
X137199600Y-85358500D01*
X138800400Y-85358500D01*
X138803646Y-85358163D01*
X138803650Y-85358163D01*
X138899308Y-85348238D01*
X138899312Y-85348237D01*
X138906166Y-85347526D01*
X138912702Y-85345345D01*
X138912704Y-85345345D01*
X139062199Y-85295469D01*
X139073946Y-85291550D01*
X139224348Y-85198478D01*
X139349305Y-85073303D01*
X139359673Y-85056483D01*
X139438275Y-84928968D01*
X139438276Y-84928966D01*
X139442115Y-84922738D01*
X139468866Y-84842086D01*
X139495632Y-84761389D01*
X139495632Y-84761387D01*
X139497797Y-84754861D01*
X139499876Y-84734576D01*
X139508172Y-84653598D01*
X139508500Y-84650400D01*
X139508500Y-83970859D01*
X143887132Y-83970859D01*
X143900457Y-84174151D01*
X143950605Y-84371610D01*
X144035898Y-84556624D01*
X144153479Y-84722997D01*
X144162400Y-84731687D01*
X144286043Y-84852135D01*
X144299410Y-84865157D01*
X144304206Y-84868362D01*
X144304209Y-84868364D01*
X144396833Y-84930253D01*
X144468803Y-84978342D01*
X144474106Y-84980620D01*
X144474109Y-84980622D01*
X144650680Y-85056483D01*
X144655987Y-85058763D01*
X144720245Y-85073303D01*
X144849055Y-85102450D01*
X144849060Y-85102451D01*
X144854692Y-85103725D01*
X144860463Y-85103952D01*
X144860465Y-85103952D01*
X144928121Y-85106610D01*
X145058263Y-85111723D01*
X145102479Y-85105312D01*
X145172764Y-85115332D01*
X145209653Y-85140913D01*
X145476345Y-85407605D01*
X145484335Y-85416385D01*
X145488584Y-85423080D01*
X145494362Y-85428506D01*
X145494363Y-85428507D01*
X145540257Y-85471604D01*
X145543099Y-85474359D01*
X145563667Y-85494927D01*
X145567170Y-85497644D01*
X145576195Y-85505352D01*
X145609867Y-85536972D01*
X145616818Y-85540793D01*
X145616819Y-85540794D01*
X145628658Y-85547303D01*
X145645182Y-85558157D01*
X145655271Y-85565982D01*
X145662132Y-85571304D01*
X145669404Y-85574451D01*
X145669406Y-85574452D01*
X145704535Y-85589654D01*
X145715195Y-85594876D01*
X145745670Y-85611630D01*
X145755663Y-85617124D01*
X145776441Y-85622459D01*
X145795131Y-85628858D01*
X145814824Y-85637380D01*
X145858596Y-85644313D01*
X145860448Y-85644606D01*
X145872071Y-85647013D01*
X145900072Y-85654202D01*
X145916812Y-85658500D01*
X145938259Y-85658500D01*
X145957969Y-85660051D01*
X145979152Y-85663406D01*
X146025141Y-85659059D01*
X146036996Y-85658500D01*
X156042655Y-85658500D01*
X156110776Y-85678502D01*
X156145551Y-85711779D01*
X156153479Y-85722997D01*
X156299410Y-85865157D01*
X156304206Y-85868362D01*
X156304209Y-85868364D01*
X156372149Y-85913760D01*
X156468803Y-85978342D01*
X156474106Y-85980620D01*
X156474109Y-85980622D01*
X156563115Y-86018862D01*
X156655987Y-86058763D01*
X156728817Y-86075243D01*
X156849055Y-86102450D01*
X156849060Y-86102451D01*
X156854692Y-86103725D01*
X156860463Y-86103952D01*
X156860465Y-86103952D01*
X156923470Y-86106427D01*
X157058263Y-86111723D01*
X157259883Y-86082490D01*
X157265347Y-86080635D01*
X157265352Y-86080634D01*
X157447327Y-86018862D01*
X157447332Y-86018860D01*
X157452799Y-86017004D01*
X157630551Y-85917458D01*
X157787186Y-85787186D01*
X157917458Y-85630551D01*
X158013125Y-85459726D01*
X158014180Y-85457842D01*
X158014181Y-85457840D01*
X158017004Y-85452799D01*
X158018860Y-85447332D01*
X158018862Y-85447327D01*
X158080634Y-85265352D01*
X158080635Y-85265347D01*
X158082490Y-85259883D01*
X158111723Y-85058263D01*
X158113249Y-85000000D01*
X158099790Y-84853525D01*
X158095137Y-84802880D01*
X158095136Y-84802877D01*
X158094608Y-84797126D01*
X158093040Y-84791566D01*
X158040875Y-84606606D01*
X158040874Y-84606604D01*
X158039307Y-84601047D01*
X158030903Y-84584004D01*
X157951756Y-84423510D01*
X157949201Y-84418329D01*
X157934629Y-84398814D01*
X157830758Y-84259715D01*
X157830758Y-84259714D01*
X157827305Y-84255091D01*
X157733505Y-84168383D01*
X157681943Y-84120719D01*
X157681940Y-84120717D01*
X157677703Y-84116800D01*
X157584927Y-84058263D01*
X157510288Y-84011169D01*
X157510283Y-84011167D01*
X157505404Y-84008088D01*
X157316180Y-83932595D01*
X157116366Y-83892849D01*
X157110592Y-83892773D01*
X157110588Y-83892773D01*
X157007452Y-83891424D01*
X156912655Y-83890183D01*
X156906958Y-83891162D01*
X156906957Y-83891162D01*
X156875211Y-83896617D01*
X156711870Y-83924684D01*
X156520734Y-83995198D01*
X156515773Y-83998150D01*
X156515772Y-83998150D01*
X156414732Y-84058263D01*
X156345649Y-84099363D01*
X156192478Y-84233690D01*
X156146948Y-84291445D01*
X156145323Y-84293506D01*
X156087442Y-84334619D01*
X156046373Y-84341500D01*
X146324950Y-84341500D01*
X146256829Y-84321498D01*
X146235855Y-84304595D01*
X146140913Y-84209653D01*
X146106887Y-84147341D01*
X146105312Y-84102478D01*
X146105970Y-84097944D01*
X146111723Y-84058263D01*
X146113249Y-84000000D01*
X146094608Y-83797126D01*
X146087554Y-83772115D01*
X146040875Y-83606606D01*
X146040874Y-83606604D01*
X146039307Y-83601047D01*
X146028680Y-83579496D01*
X145951756Y-83423510D01*
X145949201Y-83418329D01*
X145930796Y-83393681D01*
X145830758Y-83259715D01*
X145830758Y-83259714D01*
X145827305Y-83255091D01*
X145677703Y-83116800D01*
X145584927Y-83058263D01*
X145510288Y-83011169D01*
X145510283Y-83011167D01*
X145505404Y-83008088D01*
X145316180Y-82932595D01*
X145116366Y-82892849D01*
X145110592Y-82892773D01*
X145110588Y-82892773D01*
X145007452Y-82891424D01*
X144912655Y-82890183D01*
X144906958Y-82891162D01*
X144906957Y-82891162D01*
X144717567Y-82923705D01*
X144711870Y-82924684D01*
X144520734Y-82995198D01*
X144515773Y-82998150D01*
X144515772Y-82998150D01*
X144414732Y-83058263D01*
X144345649Y-83099363D01*
X144192478Y-83233690D01*
X144188911Y-83238215D01*
X144188906Y-83238220D01*
X144103664Y-83346350D01*
X144066351Y-83393681D01*
X143971492Y-83573978D01*
X143911078Y-83768543D01*
X143887132Y-83970859D01*
X139508500Y-83970859D01*
X139508500Y-83349600D01*
X139499759Y-83265352D01*
X139498238Y-83250692D01*
X139498237Y-83250688D01*
X139497526Y-83243834D01*
X139493385Y-83231420D01*
X139443868Y-83083002D01*
X139441550Y-83076054D01*
X139348478Y-82925652D01*
X139223303Y-82800695D01*
X139185715Y-82777525D01*
X139104137Y-82727240D01*
X139077220Y-82710647D01*
X139029727Y-82657876D01*
X139018303Y-82587804D01*
X139046577Y-82522680D01*
X139056364Y-82512218D01*
X139166906Y-82406766D01*
X139173941Y-82398814D01*
X139305141Y-82222475D01*
X139310745Y-82213438D01*
X139410357Y-82017516D01*
X139414357Y-82007665D01*
X139479534Y-81797760D01*
X139481817Y-81787376D01*
X139483861Y-81771957D01*
X139481665Y-81757793D01*
X139468478Y-81754000D01*
X136533808Y-81754000D01*
X136520277Y-81757973D01*
X136518752Y-81768580D01*
X136543477Y-81886421D01*
X136546537Y-81896617D01*
X136627263Y-82101029D01*
X136631994Y-82110561D01*
X136746016Y-82298462D01*
X136752280Y-82307052D01*
X136896327Y-82473052D01*
X136903956Y-82480470D01*
X136935569Y-82506391D01*
X136975564Y-82565051D01*
X136977496Y-82636021D01*
X136940752Y-82696770D01*
X136921983Y-82710969D01*
X136775652Y-82801522D01*
X136650695Y-82926697D01*
X136646855Y-82932927D01*
X136646854Y-82932928D01*
X136567332Y-83061937D01*
X136557885Y-83077262D01*
X136502203Y-83245139D01*
X136501503Y-83251975D01*
X136501502Y-83251978D01*
X136500692Y-83259883D01*
X136491500Y-83349600D01*
X136491500Y-84650400D01*
X134508500Y-84650400D01*
X134508500Y-81228043D01*
X136516139Y-81228043D01*
X136518335Y-81242207D01*
X136531522Y-81246000D01*
X137727885Y-81246000D01*
X137743124Y-81241525D01*
X137744329Y-81240135D01*
X137746000Y-81232452D01*
X137746000Y-81227885D01*
X138254000Y-81227885D01*
X138258475Y-81243124D01*
X138259865Y-81244329D01*
X138267548Y-81246000D01*
X139466192Y-81246000D01*
X139479723Y-81242027D01*
X139481248Y-81231420D01*
X139456523Y-81113579D01*
X139453463Y-81103383D01*
X139372737Y-80898971D01*
X139368006Y-80889439D01*
X139253984Y-80701538D01*
X139247720Y-80692948D01*
X139103673Y-80526948D01*
X139096042Y-80519528D01*
X138926089Y-80380174D01*
X138917322Y-80374150D01*
X138726318Y-80265424D01*
X138716654Y-80260959D01*
X138510059Y-80185969D01*
X138499792Y-80183198D01*
X138282345Y-80143877D01*
X138274116Y-80142944D01*
X138269624Y-80142732D01*
X138256876Y-80146475D01*
X138255671Y-80147865D01*
X138254000Y-80155548D01*
X138254000Y-81227885D01*
X137746000Y-81227885D01*
X137746000Y-80164030D01*
X137741690Y-80149352D01*
X137729807Y-80147289D01*
X137625675Y-80156124D01*
X137615203Y-80157914D01*
X137402465Y-80213130D01*
X137392425Y-80216665D01*
X137192030Y-80306937D01*
X137182744Y-80312106D01*
X137000425Y-80434850D01*
X136992130Y-80441519D01*
X136833100Y-80593228D01*
X136826059Y-80601186D01*
X136694859Y-80777525D01*
X136689255Y-80786562D01*
X136589643Y-80982484D01*
X136585643Y-80992335D01*
X136520466Y-81202240D01*
X136518183Y-81212624D01*
X136516139Y-81228043D01*
X134508500Y-81228043D01*
X134508500Y-64797386D01*
X135567759Y-64797386D01*
X135575216Y-64807753D01*
X135814935Y-65001874D01*
X135820272Y-65005751D01*
X136140685Y-65213830D01*
X136146394Y-65217127D01*
X136486811Y-65390578D01*
X136492836Y-65393260D01*
X136849502Y-65530171D01*
X136855784Y-65532212D01*
X137224816Y-65631094D01*
X137231266Y-65632465D01*
X137608629Y-65692234D01*
X137615167Y-65692920D01*
X137996699Y-65712916D01*
X138003301Y-65712916D01*
X138384833Y-65692920D01*
X138391371Y-65692234D01*
X138768734Y-65632465D01*
X138775184Y-65631094D01*
X139144216Y-65532212D01*
X139150498Y-65530171D01*
X139507164Y-65393260D01*
X139513189Y-65390578D01*
X139853606Y-65217127D01*
X139859315Y-65213830D01*
X140179728Y-65005751D01*
X140185065Y-65001874D01*
X140423835Y-64808522D01*
X140431527Y-64797386D01*
X185567759Y-64797386D01*
X185575216Y-64807753D01*
X185814935Y-65001874D01*
X185820272Y-65005751D01*
X186140685Y-65213830D01*
X186146394Y-65217127D01*
X186486811Y-65390578D01*
X186492836Y-65393260D01*
X186849502Y-65530171D01*
X186855784Y-65532212D01*
X187224816Y-65631094D01*
X187231266Y-65632465D01*
X187608629Y-65692234D01*
X187615167Y-65692920D01*
X187996699Y-65712916D01*
X188003301Y-65712916D01*
X188384833Y-65692920D01*
X188391371Y-65692234D01*
X188768734Y-65632465D01*
X188775184Y-65631094D01*
X189144216Y-65532212D01*
X189150498Y-65530171D01*
X189507164Y-65393260D01*
X189513189Y-65390578D01*
X189853606Y-65217127D01*
X189859315Y-65213830D01*
X190179728Y-65005751D01*
X190185065Y-65001874D01*
X190423835Y-64808522D01*
X190432300Y-64796267D01*
X190425966Y-64785176D01*
X188012812Y-62372022D01*
X187998868Y-62364408D01*
X187997035Y-62364539D01*
X187990420Y-62368790D01*
X185574900Y-64784310D01*
X185567759Y-64797386D01*
X140431527Y-64797386D01*
X140432300Y-64796267D01*
X140425966Y-64785176D01*
X138012812Y-62372022D01*
X137998868Y-62364408D01*
X137997035Y-62364539D01*
X137990420Y-62368790D01*
X135574900Y-64784310D01*
X135567759Y-64797386D01*
X134508500Y-64797386D01*
X134508500Y-63839945D01*
X134528502Y-63771824D01*
X134582158Y-63725331D01*
X134652432Y-63715227D01*
X134717012Y-63744721D01*
X134746767Y-63782742D01*
X134782872Y-63853603D01*
X134786169Y-63859313D01*
X134994253Y-64179735D01*
X134998123Y-64185061D01*
X135191478Y-64423835D01*
X135203733Y-64432300D01*
X135214824Y-64425966D01*
X137639658Y-62001132D01*
X138364408Y-62001132D01*
X138364539Y-62002965D01*
X138368790Y-62009580D01*
X140784310Y-64425100D01*
X140797386Y-64432241D01*
X140807753Y-64424784D01*
X141001877Y-64185061D01*
X141005747Y-64179735D01*
X141213831Y-63859313D01*
X141217128Y-63853603D01*
X141390578Y-63513189D01*
X141393260Y-63507164D01*
X141530171Y-63150498D01*
X141532212Y-63144216D01*
X141631094Y-62775184D01*
X141632465Y-62768734D01*
X141692234Y-62391371D01*
X141692920Y-62384833D01*
X141712916Y-62003301D01*
X141712916Y-61996699D01*
X141702628Y-61800400D01*
X160641500Y-61800400D01*
X160652474Y-61906166D01*
X160708450Y-62073946D01*
X160801522Y-62224348D01*
X160926697Y-62349305D01*
X160932927Y-62353145D01*
X160932928Y-62353146D01*
X161070090Y-62437694D01*
X161077262Y-62442115D01*
X161120701Y-62456523D01*
X161238611Y-62495632D01*
X161238613Y-62495632D01*
X161245139Y-62497797D01*
X161251975Y-62498497D01*
X161251978Y-62498498D01*
X161295031Y-62502909D01*
X161349600Y-62508500D01*
X162650400Y-62508500D01*
X162653646Y-62508163D01*
X162653650Y-62508163D01*
X162749308Y-62498238D01*
X162749312Y-62498237D01*
X162756166Y-62497526D01*
X162762702Y-62495345D01*
X162762704Y-62495345D01*
X162894806Y-62451272D01*
X162923946Y-62441550D01*
X163074348Y-62348478D01*
X163199305Y-62223303D01*
X163289353Y-62077220D01*
X163342124Y-62029727D01*
X163412196Y-62018303D01*
X163477320Y-62046577D01*
X163487782Y-62056364D01*
X163593234Y-62166906D01*
X163601186Y-62173941D01*
X163777525Y-62305141D01*
X163786562Y-62310745D01*
X163982484Y-62410357D01*
X163992335Y-62414357D01*
X164202240Y-62479534D01*
X164212624Y-62481817D01*
X164228043Y-62483861D01*
X164242207Y-62481665D01*
X164246000Y-62468478D01*
X164246000Y-62466192D01*
X164754000Y-62466192D01*
X164757973Y-62479723D01*
X164768580Y-62481248D01*
X164886421Y-62456523D01*
X164896617Y-62453463D01*
X165101029Y-62372737D01*
X165110561Y-62368006D01*
X165298462Y-62253984D01*
X165307052Y-62247720D01*
X165473052Y-62103673D01*
X165480472Y-62096042D01*
X165556516Y-62003301D01*
X184287084Y-62003301D01*
X184307080Y-62384833D01*
X184307766Y-62391371D01*
X184367535Y-62768734D01*
X184368906Y-62775184D01*
X184467788Y-63144216D01*
X184469829Y-63150498D01*
X184606740Y-63507164D01*
X184609422Y-63513189D01*
X184782872Y-63853603D01*
X184786169Y-63859313D01*
X184994253Y-64179735D01*
X184998123Y-64185061D01*
X185191478Y-64423835D01*
X185203733Y-64432300D01*
X185214824Y-64425966D01*
X187627978Y-62012812D01*
X187635592Y-61998868D01*
X187635461Y-61997035D01*
X187631210Y-61990420D01*
X185215690Y-59574900D01*
X185202614Y-59567759D01*
X185192247Y-59575216D01*
X184998123Y-59814939D01*
X184994253Y-59820265D01*
X184786169Y-60140687D01*
X184782872Y-60146397D01*
X184609422Y-60486811D01*
X184606740Y-60492836D01*
X184469829Y-60849502D01*
X184467788Y-60855784D01*
X184368906Y-61224816D01*
X184367535Y-61231266D01*
X184307766Y-61608629D01*
X184307080Y-61615167D01*
X184287084Y-61996699D01*
X184287084Y-62003301D01*
X165556516Y-62003301D01*
X165619826Y-61926089D01*
X165625850Y-61917322D01*
X165734576Y-61726318D01*
X165739041Y-61716654D01*
X165814031Y-61510059D01*
X165816802Y-61499792D01*
X165856123Y-61282345D01*
X165857056Y-61274116D01*
X165857268Y-61269624D01*
X165853525Y-61256876D01*
X165852135Y-61255671D01*
X165844452Y-61254000D01*
X164772115Y-61254000D01*
X164756876Y-61258475D01*
X164755671Y-61259865D01*
X164754000Y-61267548D01*
X164754000Y-62466192D01*
X164246000Y-62466192D01*
X164246000Y-60727885D01*
X164754000Y-60727885D01*
X164758475Y-60743124D01*
X164759865Y-60744329D01*
X164767548Y-60746000D01*
X165835970Y-60746000D01*
X165850648Y-60741690D01*
X165852711Y-60729807D01*
X165843876Y-60625675D01*
X165842086Y-60615203D01*
X165786870Y-60402465D01*
X165783335Y-60392425D01*
X165693063Y-60192030D01*
X165687894Y-60182744D01*
X165565150Y-60000425D01*
X165558481Y-59992130D01*
X165406772Y-59833100D01*
X165398814Y-59826059D01*
X165222475Y-59694859D01*
X165213438Y-59689255D01*
X165017516Y-59589643D01*
X165007665Y-59585643D01*
X164797760Y-59520466D01*
X164787376Y-59518183D01*
X164771957Y-59516139D01*
X164757793Y-59518335D01*
X164754000Y-59531522D01*
X164754000Y-60727885D01*
X164246000Y-60727885D01*
X164246000Y-59533808D01*
X164242027Y-59520277D01*
X164231420Y-59518752D01*
X164113579Y-59543477D01*
X164103383Y-59546537D01*
X163898971Y-59627263D01*
X163889439Y-59631994D01*
X163701538Y-59746016D01*
X163692948Y-59752280D01*
X163526948Y-59896327D01*
X163519530Y-59903956D01*
X163493609Y-59935569D01*
X163434949Y-59975564D01*
X163363979Y-59977496D01*
X163303230Y-59940752D01*
X163289030Y-59921982D01*
X163202332Y-59781880D01*
X163198478Y-59775652D01*
X163073303Y-59650695D01*
X163042965Y-59631994D01*
X162928968Y-59561725D01*
X162928966Y-59561724D01*
X162922738Y-59557885D01*
X162803498Y-59518335D01*
X162761389Y-59504368D01*
X162761387Y-59504368D01*
X162754861Y-59502203D01*
X162748025Y-59501503D01*
X162748022Y-59501502D01*
X162704969Y-59497091D01*
X162650400Y-59491500D01*
X161349600Y-59491500D01*
X161346354Y-59491837D01*
X161346350Y-59491837D01*
X161250692Y-59501762D01*
X161250688Y-59501763D01*
X161243834Y-59502474D01*
X161237298Y-59504655D01*
X161237296Y-59504655D01*
X161105194Y-59548728D01*
X161076054Y-59558450D01*
X160925652Y-59651522D01*
X160800695Y-59776697D01*
X160796855Y-59782927D01*
X160796854Y-59782928D01*
X160726954Y-59896327D01*
X160707885Y-59927262D01*
X160652203Y-60095139D01*
X160641500Y-60199600D01*
X160641500Y-61800400D01*
X141702628Y-61800400D01*
X141692920Y-61615167D01*
X141692234Y-61608629D01*
X141632465Y-61231266D01*
X141631094Y-61224816D01*
X141532212Y-60855784D01*
X141530171Y-60849502D01*
X141393260Y-60492836D01*
X141390578Y-60486811D01*
X141217128Y-60146397D01*
X141213831Y-60140687D01*
X141005747Y-59820265D01*
X141001877Y-59814939D01*
X140808522Y-59576165D01*
X140796267Y-59567700D01*
X140785176Y-59574034D01*
X138372022Y-61987188D01*
X138364408Y-62001132D01*
X137639658Y-62001132D01*
X140425100Y-59215690D01*
X140432241Y-59202614D01*
X140424784Y-59192247D01*
X140185065Y-58998126D01*
X140179728Y-58994249D01*
X139859315Y-58786170D01*
X139853606Y-58782874D01*
X139782743Y-58746767D01*
X139731128Y-58698019D01*
X139714062Y-58629104D01*
X139736963Y-58561902D01*
X139792560Y-58517750D01*
X139839946Y-58508500D01*
X186160055Y-58508500D01*
X186228176Y-58528502D01*
G37*
%TD.AperFunction*%
%TD*%
M02*
