%TF.GenerationSoftware,KiCad,Pcbnew,(6.0.7)*%
%TF.CreationDate,2023-02-16T16:04:02+01:00*%
%TF.ProjectId,hard tp,68617264-2074-4702-9e6b-696361645f70,rev?*%
%TF.SameCoordinates,Original*%
%TF.FileFunction,Soldermask,Top*%
%TF.FilePolarity,Negative*%
%FSLAX46Y46*%
G04 Gerber Fmt 4.6, Leading zero omitted, Abs format (unit mm)*
G04 Created by KiCad (PCBNEW (6.0.7)) date 2023-02-16 16:04:02*
%MOMM*%
%LPD*%
G01*
G04 APERTURE LIST*
G04 Aperture macros list*
%AMRoundRect*
0 Rectangle with rounded corners*
0 $1 Rounding radius*
0 $2 $3 $4 $5 $6 $7 $8 $9 X,Y pos of 4 corners*
0 Add a 4 corners polygon primitive as box body*
4,1,4,$2,$3,$4,$5,$6,$7,$8,$9,$2,$3,0*
0 Add four circle primitives for the rounded corners*
1,1,$1+$1,$2,$3*
1,1,$1+$1,$4,$5*
1,1,$1+$1,$6,$7*
1,1,$1+$1,$8,$9*
0 Add four rect primitives between the rounded corners*
20,1,$1+$1,$2,$3,$4,$5,0*
20,1,$1+$1,$4,$5,$6,$7,0*
20,1,$1+$1,$6,$7,$8,$9,0*
20,1,$1+$1,$8,$9,$2,$3,0*%
G04 Aperture macros list end*
%ADD10C,6.600000*%
%ADD11RoundRect,0.250000X0.512500X0.150000X-0.512500X0.150000X-0.512500X-0.150000X0.512500X-0.150000X0*%
%ADD12RoundRect,0.250000X0.825000X0.150000X-0.825000X0.150000X-0.825000X-0.150000X0.825000X-0.150000X0*%
%ADD13RoundRect,0.225000X-0.625000X-0.125000X0.625000X-0.125000X0.625000X0.125000X-0.625000X0.125000X0*%
%ADD14RoundRect,0.225000X-0.125000X-0.625000X0.125000X-0.625000X0.125000X0.625000X-0.125000X0.625000X0*%
%ADD15RoundRect,0.350000X-0.450000X0.350000X-0.450000X-0.350000X0.450000X-0.350000X0.450000X0.350000X0*%
%ADD16RoundRect,0.350000X0.350000X0.450000X-0.350000X0.450000X-0.350000X-0.450000X0.350000X-0.450000X0*%
%ADD17RoundRect,0.350000X0.350000X-0.275000X0.350000X0.275000X-0.350000X0.275000X-0.350000X-0.275000X0*%
%ADD18RoundRect,0.350000X-0.750000X0.600000X-0.750000X-0.600000X0.750000X-0.600000X0.750000X0.600000X0*%
%ADD19O,2.200000X1.900000*%
%ADD20RoundRect,0.350000X-0.600000X-0.750000X0.600000X-0.750000X0.600000X0.750000X-0.600000X0.750000X0*%
%ADD21O,1.900000X2.200000*%
%ADD22RoundRect,0.350000X0.750000X-0.600000X0.750000X0.600000X-0.750000X0.600000X-0.750000X-0.600000X0*%
%ADD23RoundRect,0.100000X-0.370000X1.200000X-0.370000X-1.200000X0.370000X-1.200000X0.370000X1.200000X0*%
%ADD24RoundRect,0.337500X0.237500X-0.287500X0.237500X0.287500X-0.237500X0.287500X-0.237500X-0.287500X0*%
%ADD25RoundRect,0.350000X0.250000X0.475000X-0.250000X0.475000X-0.250000X-0.475000X0.250000X-0.475000X0*%
%ADD26RoundRect,0.350000X0.337500X0.475000X-0.337500X0.475000X-0.337500X-0.475000X0.337500X-0.475000X0*%
%ADD27RoundRect,0.350000X0.475000X-0.250000X0.475000X0.250000X-0.475000X0.250000X-0.475000X-0.250000X0*%
%ADD28RoundRect,0.350000X-0.475000X0.337500X-0.475000X-0.337500X0.475000X-0.337500X0.475000X0.337500X0*%
%ADD29RoundRect,0.350000X-0.337500X-0.475000X0.337500X-0.475000X0.337500X0.475000X-0.337500X0.475000X0*%
G04 APERTURE END LIST*
D10*
%TO.C,H4*%
X138000000Y-62000000D03*
%TD*%
%TO.C,H3*%
X188000000Y-102000000D03*
%TD*%
%TO.C,H2*%
X188000000Y-62000000D03*
%TD*%
%TO.C,H1*%
X138000000Y-102000000D03*
%TD*%
D11*
%TO.C,U3*%
X175137500Y-83950000D03*
X175137500Y-83000000D03*
X175137500Y-82050000D03*
X172862500Y-82050000D03*
X172862500Y-83950000D03*
%TD*%
D12*
%TO.C,U2*%
X164475000Y-95905000D03*
X164475000Y-94635000D03*
X164475000Y-93365000D03*
X164475000Y-92095000D03*
X159525000Y-92095000D03*
X159525000Y-93365000D03*
X159525000Y-94635000D03*
X159525000Y-95905000D03*
%TD*%
D13*
%TO.C,U1*%
X158825000Y-80200000D03*
X158825000Y-81000000D03*
X158825000Y-81800000D03*
X158825000Y-82600000D03*
X158825000Y-83400000D03*
X158825000Y-84200000D03*
X158825000Y-85000000D03*
X158825000Y-85800000D03*
D14*
X160200000Y-87175000D03*
X161000000Y-87175000D03*
X161800000Y-87175000D03*
X162600000Y-87175000D03*
X163400000Y-87175000D03*
X164200000Y-87175000D03*
X165000000Y-87175000D03*
X165800000Y-87175000D03*
D13*
X167175000Y-85800000D03*
X167175000Y-85000000D03*
X167175000Y-84200000D03*
X167175000Y-83400000D03*
X167175000Y-82600000D03*
X167175000Y-81800000D03*
X167175000Y-81000000D03*
X167175000Y-80200000D03*
D14*
X165800000Y-78825000D03*
X165000000Y-78825000D03*
X164200000Y-78825000D03*
X163400000Y-78825000D03*
X162600000Y-78825000D03*
X161800000Y-78825000D03*
X161000000Y-78825000D03*
X160200000Y-78825000D03*
%TD*%
D15*
%TO.C,R3*%
X148000000Y-101000000D03*
X148000000Y-103000000D03*
%TD*%
D16*
%TO.C,R2*%
X161000000Y-74000000D03*
X159000000Y-74000000D03*
%TD*%
D15*
%TO.C,R1*%
X152000000Y-101000000D03*
X152000000Y-103000000D03*
%TD*%
D17*
%TO.C,L1*%
X147556250Y-89150000D03*
X147556250Y-86850000D03*
%TD*%
D18*
%TO.C,J4*%
X189000000Y-81000000D03*
D19*
X189000000Y-83500000D03*
%TD*%
D20*
%TO.C,J3*%
X162000000Y-61000000D03*
D21*
X164500000Y-61000000D03*
%TD*%
D22*
%TO.C,J2*%
X138000000Y-84000000D03*
D19*
X138000000Y-81500000D03*
%TD*%
D23*
%TO.C,J1*%
X171810000Y-69050000D03*
X171810000Y-72950000D03*
X170540000Y-69050000D03*
X170540000Y-72950000D03*
X169270000Y-69050000D03*
X169270000Y-72950000D03*
X168000000Y-69050000D03*
X168000000Y-72950000D03*
X166730000Y-69050000D03*
X166730000Y-72950000D03*
X165460000Y-69050000D03*
X165460000Y-72950000D03*
X164190000Y-69050000D03*
X164190000Y-72950000D03*
%TD*%
D24*
%TO.C,D2*%
X148000000Y-95125000D03*
X148000000Y-96875000D03*
%TD*%
%TO.C,D1*%
X152000000Y-96875000D03*
X152000000Y-95125000D03*
%TD*%
D25*
%TO.C,C10*%
X163950000Y-101000000D03*
X162050000Y-101000000D03*
%TD*%
D26*
%TO.C,C9*%
X164037500Y-98000000D03*
X161962500Y-98000000D03*
%TD*%
D27*
%TO.C,C8*%
X170000000Y-83950000D03*
X170000000Y-82050000D03*
%TD*%
%TO.C,C7*%
X179000000Y-83950000D03*
X179000000Y-82050000D03*
%TD*%
D28*
%TO.C,C6*%
X153556250Y-86962500D03*
X153556250Y-89037500D03*
%TD*%
%TO.C,C5*%
X150556250Y-86962500D03*
X150556250Y-89037500D03*
%TD*%
D26*
%TO.C,C4*%
X156037500Y-82000000D03*
X153962500Y-82000000D03*
%TD*%
D29*
%TO.C,C3*%
X155962500Y-78000000D03*
X158037500Y-78000000D03*
%TD*%
D28*
%TO.C,C2*%
X170000000Y-87962500D03*
X170000000Y-90037500D03*
%TD*%
D29*
%TO.C,C1*%
X153962500Y-74000000D03*
X156037500Y-74000000D03*
%TD*%
M02*
